<?xml version="1.0" standalone="no"?>
<!DOCTYPE svg PUBLIC "-//W3C//DTD SVG 20010904//EN"
 "http://www.w3.org/TR/2001/REC-SVG-20010904/DTD/svg10.dtd">
<svg version="1.0" xmlns="http://www.w3.org/2000/svg"
 width="500.000000pt" height="500.000000pt" viewBox="0 0 500.000000 500.000000"
 preserveAspectRatio="xMidYMid meet">
<metadata>
Created by potrace 1.14, written by Peter Selinger 2001-2017
</metadata>
<g transform="translate(0.000000,500.000000) scale(0.100000,-0.100000)"
fill="#000000" stroke="none">
<path d="M0 2500 l0 -2500 2500 0 2500 0 0 2500 0 2500 -2500 0 -2500 0 0
-2500z m1870 1598 c18 -29 64 -98 103 -153 245 -348 529 -619 790 -755 110
-58 137 -80 137 -111 0 -28 -62 -53 -111 -45 -48 8 -184 65 -249 105 -27 17
-50 27 -50 22 0 -19 67 -97 109 -126 40 -28 48 -30 129 -29 48 1 108 3 134 5
43 4 52 0 120 -49 101 -72 161 -102 220 -109 27 -3 51 -11 53 -17 1 -6 8 -37
15 -68 6 -31 22 -74 36 -94 21 -30 24 -44 19 -75 -9 -52 -55 -119 -109 -158
-46 -32 -152 -75 -166 -66 -4 2 -10 25 -13 50 -9 59 -38 115 -84 160 -81 79
-164 101 -342 90 -187 -11 -199 -11 -284 13 -243 67 -470 51 -674 -49 -81 -40
-119 -66 -190 -133 -50 -48 -107 -114 -133 -154 -77 -123 -94 -80 -26 65 57
120 159 239 254 296 18 11 31 22 28 24 -11 11 -175 -20 -260 -48 -178 -59
-295 -145 -363 -266 -69 -124 -68 -11 1 133 65 136 201 272 345 348 88 45 225
93 336 117 l90 19 -85 -5 c-191 -12 -381 -59 -546 -135 -82 -38 -218 -124
-243 -154 -17 -20 -41 -21 -41 0 0 8 13 34 29 57 140 203 384 351 681 411 14
3 -36 3 -110 1 -152 -5 -319 -32 -429 -70 -41 -14 -76 -23 -79 -20 -37 37 278
169 503 211 71 14 146 19 259 19 151 0 157 1 135 17 -13 9 -80 56 -149 104
-307 213 -541 451 -595 605 -20 56 -6 73 32 37 83 -77 451 -343 623 -450 180
-113 418 -238 450 -238 6 0 -13 28 -41 63 -81 95 -183 259 -229 363 -40 92
-93 272 -83 287 10 16 23 5 53 -45z m344 -1464 c36 -5 46 -11 46 -26 0 -53 35
-182 69 -254 35 -74 125 -184 151 -184 5 0 -2 24 -14 53 -67 151 -54 263 42
349 89 80 113 73 69 -20 -40 -84 -49 -189 -22 -257 29 -77 102 -131 243 -180
20 -7 14 -19 -29 -69 -77 -87 -195 -136 -329 -136 -70 0 -177 15 -189 26 -3 3
17 27 45 55 l49 50 -45 39 c-53 46 -131 91 -174 99 -16 4 -31 12 -34 19 -4 14
84 72 110 72 27 0 22 16 -14 43 -66 49 -120 70 -180 70 -71 -1 -76 16 -21 70
20 21 30 37 22 37 -31 0 -142 -31 -178 -49 -146 -75 -266 -242 -340 -474 -38
-118 -41 -220 -12 -342 79 -326 320 -593 649 -721 39 -15 72 -31 72 -36 0 -17
-60 -6 -173 32 -390 131 -641 361 -729 667 -19 65 -23 102 -23 228 0 173 18
253 86 388 81 164 187 271 348 352 150 75 367 118 505 99z m920 -436 c126 -61
159 -73 212 -76 59 -4 63 -6 53 -23 -5 -11 -15 -16 -21 -13 -7 4 -8 3 -4 -4
10 -16 -12 -54 -26 -46 -7 4 -8 3 -4 -4 9 -15 -12 -54 -24 -47 -6 3 -7 -1 -4
-9 8 -21 -3 -20 -33 4 -14 11 -39 20 -55 20 -83 0 -90 -57 -17 -135 25 -27 26
-33 15 -53 l-13 -24 -31 36 c-45 52 -70 105 -87 188 -27 126 -45 168 -92 215
-25 24 -39 43 -31 43 7 0 80 -32 162 -72z m296 -9 c0 -5 5 -7 11 -3 8 4 8 0 0
-15 -13 -24 -48 -21 -116 9 l-40 18 73 1 c44 1 72 -3 72 -10z"/>
</g>
</svg>
